<?xml version="1.0" encoding="UTF-8" standalone="no"?><svg xmlns="http://www.w3.org/2000/svg" xmlns:xlink="http://www.w3.org/1999/xlink" contentScriptType="application/ecmascript" contentStyleType="text/css" height="367px" preserveAspectRatio="none" style="width:688px;height:367px;background:#FFFFFF;" version="1.1" viewBox="0 0 688 367" width="688px" zoomAndPan="magnify"><defs><filter height="300%" id="f1w70eez6f4b54" width="300%" x="-1" y="-1"><feGaussianBlur result="blurOut" stdDeviation="2.0"/><feColorMatrix in="blurOut" result="blurOut2" type="matrix" values="0 0 0 0 0 0 0 0 0 0 0 0 0 0 0 0 0 0 .4 0"/><feOffset dx="4.0" dy="4.0" in="blurOut2" result="blurOut3"/><feBlend in="SourceGraphic" in2="blurOut3" mode="normal"/></filter></defs><g><line style="stroke:#A80036;stroke-width:1.0;stroke-dasharray:5.0,5.0;" x1="23" x2="23" y1="88.2969" y2="283.0938"/><line style="stroke:#A80036;stroke-width:1.0;stroke-dasharray:5.0,5.0;" x1="149" x2="149" y1="88.2969" y2="283.0938"/><line style="stroke:#A80036;stroke-width:1.0;stroke-dasharray:5.0,5.0;" x1="416.5" x2="416.5" y1="88.2969" y2="283.0938"/><line style="stroke:#A80036;stroke-width:1.0;stroke-dasharray:5.0,5.0;" x1="614.5" x2="614.5" y1="88.2969" y2="283.0938"/><text fill="#000000" font-family="sans-serif" font-size="14" lengthAdjust="spacing" textLength="31" x="5" y="84.9951">User</text><ellipse cx="23.5" cy="15" fill="#FEFECE" filter="url(#f1w70eez6f4b54)" rx="8" ry="8" style="stroke:#A80036;stroke-width:2.0;"/><path d="M23.5,23 L23.5,50 M10.5,31 L36.5,31 M23.5,50 L10.5,65 M23.5,50 L36.5,65 " fill="none" filter="url(#f1w70eez6f4b54)" style="stroke:#A80036;stroke-width:2.0;"/><text fill="#000000" font-family="sans-serif" font-size="14" lengthAdjust="spacing" textLength="31" x="5" y="295.0889">User</text><ellipse cx="23.5" cy="308.3906" fill="#FEFECE" filter="url(#f1w70eez6f4b54)" rx="8" ry="8" style="stroke:#A80036;stroke-width:2.0;"/><path d="M23.5,316.3906 L23.5,343.3906 M10.5,324.3906 L36.5,324.3906 M23.5,343.3906 L10.5,358.3906 M23.5,343.3906 L36.5,358.3906 " fill="none" filter="url(#f1w70eez6f4b54)" style="stroke:#A80036;stroke-width:2.0;"/><text fill="#000000" font-family="sans-serif" font-size="14" lengthAdjust="spacing" textLength="13" x="140" y="84.9951">UI</text><path d="M129,44 L129,68 M129,56 L146,56 " fill="none" filter="url(#f1w70eez6f4b54)" style="stroke:#A80036;stroke-width:2.0;"/><ellipse cx="158" cy="56" fill="#FEFECE" filter="url(#f1w70eez6f4b54)" rx="12" ry="12" style="stroke:#A80036;stroke-width:2.0;"/><text fill="#000000" font-family="sans-serif" font-size="14" lengthAdjust="spacing" textLength="13" x="140" y="295.0889">UI</text><path d="M129,302.3906 L129,326.3906 M129,314.3906 L146,314.3906 " fill="none" filter="url(#f1w70eez6f4b54)" style="stroke:#A80036;stroke-width:2.0;"/><ellipse cx="158" cy="314.3906" fill="#FEFECE" filter="url(#f1w70eez6f4b54)" rx="12" ry="12" style="stroke:#A80036;stroke-width:2.0;"/><rect fill="#FEFECE" filter="url(#f1w70eez6f4b54)" height="30.2969" style="stroke:#A80036;stroke-width:1.5;" width="104" x="362.5" y="53"/><text fill="#000000" font-family="sans-serif" font-size="14" lengthAdjust="spacing" textLength="90" x="369.5" y="72.9951">Main_Thread</text><rect fill="#FEFECE" filter="url(#f1w70eez6f4b54)" height="30.2969" style="stroke:#A80036;stroke-width:1.5;" width="104" x="362.5" y="282.0938"/><text fill="#000000" font-family="sans-serif" font-size="14" lengthAdjust="spacing" textLength="90" x="369.5" y="302.0889">Main_Thread</text><rect fill="#FEFECE" filter="url(#f1w70eez6f4b54)" height="30.2969" style="stroke:#A80036;stroke-width:1.5;" width="124" x="550.5" y="53"/><text fill="#000000" font-family="sans-serif" font-size="14" lengthAdjust="spacing" textLength="110" x="557.5" y="72.9951">Worker_Thread</text><rect fill="#FEFECE" filter="url(#f1w70eez6f4b54)" height="30.2969" style="stroke:#A80036;stroke-width:1.5;" width="124" x="550.5" y="282.0938"/><text fill="#000000" font-family="sans-serif" font-size="14" lengthAdjust="spacing" textLength="110" x="557.5" y="302.0889">Worker_Thread</text><polygon fill="#A80036" points="137.5,115.4297,147.5,119.4297,137.5,123.4297,141.5,119.4297" style="stroke:#A80036;stroke-width:1.0;"/><line style="stroke:#A80036;stroke-width:1.0;" x1="23.5" x2="143.5" y1="119.4297" y2="119.4297"/><text fill="#000000" font-family="sans-serif" font-size="13" lengthAdjust="spacing" textLength="102" x="30.5" y="114.3638">Push the button</text><polygon fill="#A80036" points="404.5,144.5625,414.5,148.5625,404.5,152.5625,408.5,148.5625" style="stroke:#A80036;stroke-width:1.0;"/><line style="stroke:#A80036;stroke-width:1.0;" x1="149.5" x2="410.5" y1="148.5625" y2="148.5625"/><text fill="#000000" font-family="sans-serif" font-size="13" lengthAdjust="spacing" textLength="190" x="156.5" y="143.4966">Trigger 'postToWorkerThread'</text><polygon fill="#A80036" points="160.5,173.6953,150.5,177.6953,160.5,181.6953,156.5,177.6953" style="stroke:#A80036;stroke-width:1.0;"/><line style="stroke:#A80036;stroke-width:1.0;" x1="154.5" x2="415.5" y1="177.6953" y2="177.6953"/><text fill="#000000" font-family="sans-serif" font-size="13" lengthAdjust="spacing" textLength="121" x="166.5" y="172.6294">Get textarea value</text><polygon fill="#A80036" points="602.5,202.8281,612.5,206.8281,602.5,210.8281,606.5,206.8281" style="stroke:#A80036;stroke-width:1.0;"/><line style="stroke:#A80036;stroke-width:1.0;" x1="416.5" x2="608.5" y1="206.8281" y2="206.8281"/><text fill="#000000" font-family="sans-serif" font-size="13" lengthAdjust="spacing" textLength="84" x="423.5" y="201.7622">postMessage</text><polygon fill="#A80036" points="427.5,231.9609,417.5,235.9609,427.5,239.9609,423.5,235.9609" style="stroke:#A80036;stroke-width:1.0;"/><line style="stroke:#A80036;stroke-width:1.0;" x1="421.5" x2="613.5" y1="235.9609" y2="235.9609"/><text fill="#000000" font-family="sans-serif" font-size="13" lengthAdjust="spacing" textLength="174" x="433.5" y="230.895">postMessage with ACK (*1)</text><polygon fill="#A80036" points="160.5,261.0938,150.5,265.0938,160.5,269.0938,156.5,265.0938" style="stroke:#A80036;stroke-width:1.0;"/><line style="stroke:#A80036;stroke-width:1.0;" x1="154.5" x2="415.5" y1="265.0938" y2="265.0938"/><text fill="#000000" font-family="sans-serif" font-size="13" lengthAdjust="spacing" textLength="243" x="166.5" y="260.0278">Set textarea value with ACK message</text><!--MD5=[a9bc845bad6a910019ca85de1a5b4d08]
@startuml
actor User
boundary UI
User -> UI: Push the button
UI -> Main_Thread: Trigger 'postToWorkerThread'
Main_Thread -> UI: Get textarea value
Main_Thread -> Worker_Thread: postMessage
Worker_Thread -> Main_Thread: postMessage with ACK (*1)
Main_Thread -> UI: Set textarea value with ACK message
@enduml

PlantUML version 1.2021.10beta5(Unknown compile time)
(GPL source distribution)
Java Runtime: Java(TM) SE Runtime Environment
JVM: Java HotSpot(TM) 64-Bit Server VM
Default Encoding: UTF-8
Language: en
Country: US
--></g></svg>